<svg xmlns="http://www.w3.org/2000/svg" width="64" height="64" viewBox="0 0 64 64">
  <g id="icon_01" transform="translate(-117 1.828)">
    <rect id="Rectángulo_2296" data-name="Rectángulo 2296" width="64" height="64" transform="translate(117 -1.828)" fill="none"/>
    <g id="Page-1" transform="translate(121.998)">
      <g id="_021---Brain-Profile" data-name="021---Brain-Profile" transform="translate(0)">
        <path id="Shape" d="M5.4,27.394a6.079,6.079,0,0,1-1.408,3.25C.85,34.032-.047,35.2.063,36.407a2.9,2.9,0,0,0,1.458,1.97,7.273,7.273,0,0,0,1.041.6c.43.22,1.15.589,1.2.853a1.709,1.709,0,0,1-.11,1c-.149.313-.3.583-.434.819-.389.69-.978,1.734-.055,2.511.215.191.585.482.922.74a2.521,2.521,0,0,0-.322,1.449,1.432,1.432,0,0,0,.587.972,7.441,7.441,0,0,0,.7.432c.586.336.815.492.894.8a2.126,2.126,0,0,1-.084,1.133,5.662,5.662,0,0,0,.16,3.565,3.7,3.7,0,0,0,4.35,2.644,81.082,81.082,0,0,0,8.41-2.522c1.38.823,2.69,2.822,3.637,5.573a3.012,3.012,0,0,0,2.842,2.038H45.419A3,3,0,0,0,48.1,56.651a27.416,27.416,0,0,1-2.3-8.776,16.941,16.941,0,0,1,1.3-8.78,21.837,21.837,0,0,1,2.642-4.19c1.978-2.673,4.22-5.7,4.292-10.853a30.013,30.013,0,0,0-1.043-8.492,16.574,16.574,0,0,0-5.963-8.6C39.155.763,32.367-.374,20.138,2.448c-3.319.766-7.078,1.935-9.787,4.8a18.984,18.984,0,0,0-4,6.54,26.383,26.383,0,0,0-.9,3.27l-.08.346a13.617,13.617,0,0,1-.883,2.343,6.009,6.009,0,0,0-.823,3,3.823,3.823,0,0,0,1.455,2.227c.49.449.811.765.814,1.052a1.853,1.853,0,0,1-.192.464,3.122,3.122,0,0,0-.345.9Zm30.893,2.577a1,1,0,0,0-1.25-.663,7.641,7.641,0,0,1-1.726.318,7.367,7.367,0,0,1-3.313-.5,1.053,1.053,0,0,0-1.122.279,4.28,4.28,0,0,1-6.9-5.007,1,1,0,0,0-1.715-1.029,6.213,6.213,0,0,0-.572,1.286,1.508,1.508,0,0,1-1.425-1.472v-.025a.989.989,0,0,0-1-.987,1.01,1.01,0,0,0-1,1.012,3.476,3.476,0,0,0,3.1,3.449,6.279,6.279,0,0,0,.091,1,6.112,6.112,0,0,1-6.912-8.367,4.07,4.07,0,0,0,.745.593,1,1,0,1,0,1.031-1.714,2.112,2.112,0,0,1-.906-1.122,2.075,2.075,0,0,1-.117-.687,2.111,2.111,0,0,1,2.1-2.112,2.079,2.079,0,0,1,1.681.848,1,1,0,1,0,1.6-1.194,4.038,4.038,0,0,0-2.836-1.6,3.039,3.039,0,0,1,2.964-2.406,2.958,2.958,0,0,1,.364.041c-.075.206-.154.411-.209.624a1,1,0,0,0,1.935.5,4.882,4.882,0,0,1,.513-1.24,4.937,4.937,0,0,1,4.218-2.409,4.853,4.853,0,0,1,2.647.8,4.064,4.064,0,0,0-.234,1.31,1,1,0,1,0,2,0,2.1,2.1,0,0,1,4.206,0,1,1,0,1,0,2,0c0-.078-.019-.15-.023-.227a6.49,6.49,0,0,1,5.921,5,4.068,4.068,0,0,0-1.294.645,1,1,0,1,0,1.2,1.6,2.109,2.109,0,0,1,3.093,2.726,2.145,2.145,0,0,1-.949.875,1,1,0,1,0,.85,1.811,4.114,4.114,0,0,0,.748-.467,4.269,4.269,0,0,1-.852,4.27l-.018.019a4.321,4.321,0,0,1-5.1.936,4.046,4.046,0,0,1-.485-.3,3.406,3.406,0,0,0,.267-3.517,1,1,0,0,0-1.79.893,1.486,1.486,0,0,1-.482,1.886,1.507,1.507,0,0,1-2.17-.553,1,1,0,1,0-1.786.9,3.442,3.442,0,0,0,4.369,1.682,6,6,0,0,0,1.172.8,6.167,6.167,0,0,0,4.619.426,6.374,6.374,0,0,1-4.117,2.525,1,1,0,0,0,.157,1.988.968.968,0,0,0,.16-.013,8.224,8.224,0,0,0,1.773-.518,8.931,8.931,0,0,1,.745,1.718,1,1,0,0,1,.052.322,1.079,1.079,0,0,1-.655.992,1.127,1.127,0,0,1-1.291-.348,6.4,6.4,0,0,0-2.927-1.945c-2.16-.723-2.994-1.37-3.348-2.074a9.488,9.488,0,0,0,1.533-.321,1,1,0,0,0,.663-1.254Zm1.079,12.1c.074-.423.164-.852.255-1.284a15.087,15.087,0,0,0,.454-4.632,4.165,4.165,0,0,1,.767.7,3.205,3.205,0,0,0,1.781,1.066,22.577,22.577,0,0,1-.419,2.453c-.1.456-.189.908-.268,1.352-1.1,6.132.564,12.064,2.419,17.263H39.946c-1.861-5.114-3.638-10.992-2.583-16.912ZM6.468,23.495c-.4-.37-.784-.72-.827-1.028A6.47,6.47,0,0,1,6.31,20.56a15.229,15.229,0,0,0,1-2.707l.08-.349a25.035,25.035,0,0,1,.833-3.029,17.018,17.018,0,0,1,3.579-5.857c2.335-2.473,5.6-3.492,8.781-4.226C33.63,1.387,39.31,3.429,45.8,8.534a14.423,14.423,0,0,1,5.272,7.57,27.993,27.993,0,0,1,.968,7.918c-.063,4.508-1.927,7.026-3.9,9.7A23.671,23.671,0,0,0,45.273,38.3a18.934,18.934,0,0,0-1.455,9.818,29.258,29.258,0,0,0,2.5,9.438,1,1,0,0,1-.9,1.429h-.93c-1.861-5.113-3.638-10.991-2.583-16.913.074-.425.165-.855.256-1.29a21.1,21.1,0,0,0,.483-3.139,3.07,3.07,0,0,0,1.669-2.726,2.975,2.975,0,0,0-.152-.946,10.8,10.8,0,0,0-.883-2.035,8.431,8.431,0,0,0,3.321-5.08,6.186,6.186,0,0,0,.554-7.185A4.088,4.088,0,0,0,44.19,14.2a8.506,8.506,0,0,0-8.31-6.944c-.1,0-.189.013-.285.016a4.067,4.067,0,0,0-6.227-.77,6.867,6.867,0,0,0-3.732-1.11,6.938,6.938,0,0,0-5.457,2.687,4.981,4.981,0,0,0-6.366,4.475A4.041,4.041,0,0,0,11.4,17.2,8.114,8.114,0,0,0,20.1,29.55a6.264,6.264,0,0,0,9.817,1.657A9.6,9.6,0,0,0,32,31.614c.431,1.6,1.576,2.646,3.831,3.541a9.945,9.945,0,0,1-.171,5.225c-.095.454-.189.9-.267,1.346-1.091,6.129.573,12.062,2.427,17.261H25.258a1.014,1.014,0,0,1-.952-.692,14.736,14.736,0,0,0-3.282-5.7l.747-.262c.739-.26,1.3-.456,1.576-.544C27.623,50.444,29.762,48.5,29.7,46a.974.974,0,0,0-1.022-.976,1,1,0,0,0-.977,1.023c.024,1.031-.817,2.533-4.96,3.837-.293.092-.871.295-1.637.564-.717.252-1.6.564-2.574.9h-.006a82.818,82.818,0,0,1-8.566,2.594A1.772,1.772,0,0,1,7.908,52.6a3.676,3.676,0,0,1-.1-2.449,4.014,4.014,0,0,0,.076-2.074,3.3,3.3,0,0,0-1.84-2.047l-.213-.123a3.662,3.662,0,0,1,.383-.621,1,1,0,0,0-.192-1.419c-.24-.178-.81-.607-1.22-.935.051-.094.109-.2.161-.291.153-.271.329-.584.5-.942a3.7,3.7,0,0,0,.269-2.234c-.232-1.227-1.4-1.825-2.255-2.261a5.837,5.837,0,0,1-.755-.426,5.547,5.547,0,0,1-.661-.542c.017-.578,2.216-2.95,3.4-4.225a8,8,0,0,0,1.914-4.28,2.525,2.525,0,0,1,.152-.335,2.941,2.941,0,0,0,.409-1.392,3.493,3.493,0,0,0-1.467-2.51Z" transform="translate(-0.054 -0.986)" fill="#005248"/>
        <path id="Shape-2" data-name="Shape" d="M36.038,18.578a1,1,0,1,0-1.964-.376,3.99,3.99,0,0,1-1.656,2.539,4.084,4.084,0,0,1-5.264-.595,1,1,0,0,0-1.484,1.341,6.022,6.022,0,0,0,3.2,1.847,2.974,2.974,0,0,1-2.434,1.256,1,1,0,0,0,0,2A4.96,4.96,0,0,0,31.1,23.383a6.034,6.034,0,0,0,4.938-4.8Z" transform="translate(-0.062 -0.99)" fill="#005248"/>
        <path id="Shape-3" data-name="Shape" d="M26.855,14.39a1,1,0,0,0-1-1,4.606,4.606,0,0,0-4.6,4.6,1,1,0,1,0,2,0,2.6,2.6,0,0,1,2.6-2.6,1,1,0,0,0,1-1Z" transform="translate(-0.06 -0.989)" fill="#005248"/>
      </g>
    </g>
  </g>
</svg>
