<svg xmlns="http://www.w3.org/2000/svg" width="64" height="64" viewBox="0 0 64 64">
  <g id="icon_02" transform="translate(-117 1.828)">
    <rect id="Rectángulo_2297" data-name="Rectángulo 2297" width="64" height="64" transform="translate(117 -1.828)" fill="none"/>
    <g id="_002-heart" data-name="002-heart" transform="translate(127.277)">
      <g id="Grupo_3052" data-name="Grupo 3052">
        <path id="Trazado_3335" data-name="Trazado 3335" d="M108.433,27a5.122,5.122,0,0,0,.1-1,9.183,9.183,0,0,0-3.163-6.354c.11.012.213.019.327.034a3.458,3.458,0,0,0,1.608-6.689,16.371,16.371,0,0,0-4.016-.945A9.607,9.607,0,0,0,103.535,10c0-2.716-1.98-5.177-5-6.309V3a3,3,0,0,0-6,0v.172q-.5.086-.967.217l-.521-1.3a2.664,2.664,0,0,0-5.035,1.721l.8,2.817a11.972,11.972,0,0,0-1.29,2.142,13.324,13.324,0,0,0-1.78-6.417A4.706,4.706,0,0,0,79.689,0H75.762a2.035,2.035,0,0,0-1.621,3.262C75.233,4.717,76.535,6.894,76.535,9v13.48c-1.87,2-4,5.759-4,12.52,0,8.927,1.078,10.577,2.133,11.014a1.433,1.433,0,0,0,.551.11,1.386,1.386,0,0,0,.168-.019,18.64,18.64,0,0,0,1.149,2.17V55.5a4.481,4.481,0,0,0,8,2.793,4.452,4.452,0,0,0,7.316-.445A12.416,12.416,0,0,0,93.535,58a33.918,33.918,0,0,1,8.756,1.18,21.877,21.877,0,0,0,5.244.82c2.405,0,8-1.169,8-12C115.535,42.994,113.044,34.007,108.433,27Zm-1.9-1a3.416,3.416,0,0,1-.055.741.983.983,0,0,0-.068.14,1.139,1.139,0,0,1-.29.5l-.034.029a1.374,1.374,0,0,1-.161.122c-.031.02-.061.041-.095.06a2.023,2.023,0,0,1-.285.133c-.031.012-.069.022-.1.033a3.435,3.435,0,0,1-.346.095c-.037.008-.073.017-.112.025-.166.032-.354.059-.564.078l-.125.01c-.23.018-.478.03-.763.03-.185,0-.363-.009-.533-.026l-.037-.005c-.157-.017-.309-.039-.452-.068l-.034-.008c-.14-.03-.274-.064-.4-.1-.024-.007-.045-.017-.068-.024-.107-.036-.209-.074-.3-.116-.042-.019-.078-.039-.117-.058-.067-.033-.133-.066-.192-.1s-.1-.064-.144-.1-.073-.051-.106-.077a1.606,1.606,0,0,1-.137-.125c-.019-.019-.039-.039-.056-.058a1.084,1.084,0,0,1-.1-.141c-.011-.018-.023-.036-.032-.054a.741.741,0,0,1-.044-.095.611.611,0,0,1-.032-.239.715.715,0,0,1,.015-.112.914.914,0,0,1,.041-.132,1.133,1.133,0,0,1,.078-.179l.014-.021a2.188,2.188,0,0,1,.35-.449h0v0h0a4.381,4.381,0,0,0,.433-.519c.023-.031.053-.058.075-.09.046-.066.08-.137.123-.205,0-.006.01-.011.014-.017.024-.039.042-.08.065-.119a5.141,5.141,0,0,0,.291-.571c0-.007.009-.013.013-.021.018-.044.03-.089.048-.134.069-.177.135-.355.187-.538,0-.01.01-.017.013-.027l0-.006c.02-.072.031-.145.048-.218.038-.156.076-.31.1-.467h0v0c.012-.072.02-.145.03-.217l.005-.016h0v0q.016-.117.03-.234l0-.015,0-.034c.014-.131.022-.261.03-.392,0-.007.005-.013.005-.021,0-.076.008-.152.011-.229v-.091l0-.091c0-.033,0-.066,0-.1V21.32h0c0-.025,0-.049,0-.074l0-.016c0-.011,0-.022-.005-.033v-.046c0-.159,0-.312-.012-.461,0-.05-.006-.1-.009-.149-.006-.089-.009-.185-.016-.27A7.206,7.206,0,0,1,106.535,26ZM102,14h.534a13.061,13.061,0,0,1,4.1.875,1.453,1.453,0,0,1,.874.836,1.438,1.438,0,0,1-.049,1.2,1.457,1.457,0,0,1-1.5.791,8.7,8.7,0,0,0-4.862.4l0,0-.009,0a.981.981,0,0,0-.307.252c-.009.011-.024.015-.032.026s-.013.036-.024.052a.988.988,0,0,0-.145.309c-.006.023-.017.043-.021.066a.989.989,0,0,0-.009.353l.174,1.036c.01.092.019.2.027.3.006.08.013.161.017.244s.009.18.011.273c0,.181,0,.366,0,.554,0,.036,0,.071,0,.107a6.65,6.65,0,0,1-.072.685l-.007.034a4.935,4.935,0,0,1-.149.624c-.006.02-.013.039-.019.059s-.021.059-.032.089a3.513,3.513,0,0,1-.2.461c-.03.057-.059.115-.093.17a2.551,2.551,0,0,1-.366.486l0,.006-.016.018a4.536,4.536,0,0,0-.366.418l-.006.007v0l-.007.007-.164.023c-.513.069-1.049.125-1.615.163-.075.005-.153.008-.229.012-.605.036-1.232.058-1.89.058-.21,0-.434-.016-.662-.039-.108-.011-.221-.029-.333-.045s-.241-.034-.364-.056-.277-.054-.417-.084c-.1-.021-.194-.043-.291-.066q-.238-.058-.476-.125l-.19-.056a8.953,8.953,0,0,1-2.137-.923,3.787,3.787,0,0,0-.393-.354.881.881,0,0,1,0-.105c0-.022.015-.04.017-.062a4.3,4.3,0,0,1,.326-1.173l.028-.069c.084-.2.186-.419.3-.642.027-.054.055-.109.084-.165.122-.234.254-.475.4-.725l.039-.064a18.794,18.794,0,0,1,1.921-2.62l.075-.084c.25-.283.509-.563.782-.835h0a10.509,10.509,0,0,1,.83-.741c.052-.041.1-.087.155-.127a8.607,8.607,0,0,1,.711-.491c.1-.062.2-.125.3-.181.206-.117.412-.221.619-.316q.19-.087.381-.163c.2-.077.393-.149.59-.21.125-.039.251-.072.376-.1.213-.055.427-.107.644-.146.093-.017.186-.03.279-.045.254-.039.509-.075.769-.1l.12-.009C100.656,14.018,101.314,14,102,14ZM85.535,20.089c0-5.928,1.058-10.163,3.144-12.587h0a1,1,0,0,0,.2-.927l-.948-3.318a.664.664,0,0,1,1.255-.43l.873,2.181a1,1,0,0,0,1.3.557,7.969,7.969,0,0,1,2.261-.521,1,1,0,0,0,.911-1V3a1,1,0,0,1,2,0V4.412a1,1,0,0,0,.722.961c2.559.739,4.278,2.6,4.278,4.626a7.937,7.937,0,0,1-.284,2.01h-.018a19.061,19.061,0,0,0-2.015.138l-.135.016c-.284.039-.569.09-.855.15-.1.021-.2.043-.3.067-.259.062-.519.131-.78.214-.12.038-.24.084-.36.127q-.278.1-.557.221c-.157.068-.315.139-.472.217q-.32.158-.64.347c-.063.037-.125.063-.188.1C95.212,12.754,95.7,12,96.535,12a1,1,0,1,0,0-2c-2.97,0-3.891,3.336-3.99,5.587-.123.128-.245.259-.369.395-.083.091-.165.183-.246.276q-.2.233-.407.478c-.092.111-.184.22-.273.332q-.271.339-.531.694c-.041.056-.08.111-.12.167A13.654,13.654,0,0,0,88.464,22h-.617l-.08-.028c-.131-.048-.269-.095-.4-.142l-.541-.19c-.4-.138-.825-.285-1.266-.447l-.021-.008v-1.1ZM75.762,2h3.927A2.7,2.7,0,0,1,82.015,3.35,11.3,11.3,0,0,1,83.535,9v10.35c-.506.164-.958.332-1.379.514a5.692,5.692,0,0,0-3.621.953V9C78.535,6.343,77.015,3.76,75.762,2Zm.965,41.09-.006.015c-.227.542-.48.8-.911.869-.007,0-.012.006-.019.007a1.863,1.863,0,0,1-.255.019,1.023,1.023,0,0,0-.134.009c-.281-.585-.866-2.576-.866-9.009s2.029-9.747,3.665-11.377c.011-.01.027-.014.037-.025,1.6-1.578,3.15-1.894,3.75-1.726.014,0,.029,0,.043,0s.043.01.057.017a31.771,31.771,0,0,0,4.07,1.633c.171.059.314.11.47.165s.3.106.446.158a8.531,8.531,0,0,1,1.681.76c.027.031.044.067.074.1a4,4,0,0,0,.392.32,1.39,1.39,0,0,1,.133.182c.008.015.016.031.023.047a1.344,1.344,0,0,1,.1.278c.006.025.014.045.02.072a2,2,0,0,1,.038.394c0,3.461-5.566,8.009-8.557,10.452-.943.771-1.688,1.379-2.15,1.841a4.561,4.561,0,0,0-.349.392c-.01.013-.018.026-.028.039a8.447,8.447,0,0,0-1.313,3.067A11.668,11.668,0,0,1,76.727,43.089ZM83.535,55.5a2.5,2.5,0,1,1-5,0V50.937a20.407,20.407,0,0,0,5,4v.56Zm4.5,2.5a2.5,2.5,0,0,1-2.453-2.025A25.1,25.1,0,0,0,89.654,57.4,2.467,2.467,0,0,1,88.035,58Zm11.526-1.464A32.746,32.746,0,0,0,93.535,56a11.856,11.856,0,0,1-2.026-.233c-.009,0-.016-.009-.025-.011a23.063,23.063,0,0,1-6.475-2.313c-.272-.146-.533-.3-.794-.457-.112-.067-.224-.132-.336-.2-.216-.134-.425-.274-.634-.415q-.255-.173-.507-.357c-.184-.134-.368-.267-.545-.407-.21-.164-.415-.34-.62-.515q-.387-.333-.751-.684c-.165-.158-.329-.318-.489-.485q-.266-.279-.518-.568c-.118-.134-.231-.274-.346-.414q-.482-.589-.907-1.219a16.144,16.144,0,0,1-1.273-2.2c.02-.013.035-.03.054-.043a2.758,2.758,0,0,0,.349-.279c.059-.056.111-.118.165-.179a3.267,3.267,0,0,0,.216-.266c.045-.063.09-.124.131-.19.07-.111.134-.227.194-.345s.109-.225.159-.34c.038-.09.077-.179.111-.27.047-.125.09-.248.13-.373l.023-.072c.091-.288.174-.573.247-.841a8.4,8.4,0,0,1,.76-2.077,2.774,2.774,0,0,1,.413-.539c.391-.391,1.137-1,2-1.706l.664-.544A19.516,19.516,0,0,1,83.535,42a5.316,5.316,0,0,0,2.553,4.895.985.985,0,0,0,.442.1A1,1,0,0,0,87,45.112,3.16,3.16,0,0,1,85.6,42.823,9.683,9.683,0,0,0,87.535,43a1,1,0,1,0,0-2,6.5,6.5,0,0,1-2.045-.294c0-.01-.01-.017-.013-.027a23.86,23.86,0,0,0-.882-4.636l.075-.065c.187-.161.374-.322.562-.487.094-.083.188-.17.283-.254.165-.147.329-.294.493-.444.1-.093.2-.189.3-.283.155-.145.311-.29.464-.438.105-.1.207-.206.311-.309.145-.144.292-.287.434-.433.1-.107.2-.217.307-.325l.024-.026a4.184,4.184,0,0,0,.98,1.728A3.929,3.929,0,0,1,89.535,37a1,1,0,1,0,2,0c0-.038,0-.136-.009-.257A2.52,2.52,0,0,0,92.535,37a1.007,1.007,0,0,0,1.009-1,.992.992,0,0,0-.992-1,7.47,7.47,0,0,1-2.308-1.706l0,0a3.932,3.932,0,0,1-.707-2.3l0-.011c.086-.116.163-.234.244-.35.1-.145.2-.289.3-.435.081-.125.152-.25.227-.376.087-.145.175-.289.254-.435.069-.128.128-.256.191-.384.071-.144.143-.288.2-.432s.1-.26.149-.39.109-.287.152-.431.068-.262.1-.393.071-.287.1-.43.032-.263.045-.394c.011-.107.033-.215.037-.322.078.028.161.05.241.077.117.039.233.075.351.112.219.068.435.133.658.191.09.023.179.043.269.064.238.057.472.111.707.155.1.02.2.031.306.048.206.033.412.068.611.088a8.21,8.21,0,0,0,.862.051c.512,0,1.006-.014,1.49-.034.145-.006.286-.015.429-.023q.532-.03,1.038-.077c.081-.008.17-.01.251-.019v.006a2.588,2.588,0,0,0,.1.525q.012.039.025.078c.02.06.033.12.058.179.033.079.082.15.122.226.018.035.027.071.047.105s.031.041.044.062a3.016,3.016,0,0,0,.2.285c.046.058.092.116.142.172a3.458,3.458,0,0,0,.247.247c.06.055.123.108.188.159.091.072.184.141.283.207.076.051.156.1.237.144.1.058.2.115.309.166s.191.084.29.125.212.088.324.125.234.069.353.1.21.06.32.084c.056.012.113.021.17.032A35.047,35.047,0,0,0,100.535,38a5.5,5.5,0,0,0,.047.7c-.17.5-.991,2.3-2.047,2.3a1,1,0,0,0,0,2,3.678,3.678,0,0,0,2.935-1.723c.228.431.471.844.708,1.238A7.053,7.053,0,0,1,103.535,46a10.075,10.075,0,0,1-2.018,5.62A10.592,10.592,0,0,0,99.561,56.535ZM107.535,58a20.069,20.069,0,0,1-4.774-.765c-.4-.1-.8-.192-1.222-.289a8.3,8.3,0,0,1,1.68-4.276,14.023,14.023,0,0,0,2.132-4.8,10.1,10.1,0,0,1,2.172,2.376,3.614,3.614,0,0,1-.694,2.042,1,1,0,1,0,1.414,1.414,3.9,3.9,0,0,0,.836-1.341,2.422,2.422,0,0,0,1.457.634,1,1,0,0,0,.094-2c-.083-.028-.6-.248-1.2-1.451a13.72,13.72,0,0,0-3.927-4.094,9.657,9.657,0,0,0-1.61-3.973A7.052,7.052,0,0,1,102.535,38a11.822,11.822,0,0,1,.173-1.8,7.361,7.361,0,0,0,4.584,3.77c1.182.3,2.077,1.848,2.321,2.419a1,1,0,0,0,1.843-.777c-.128-.3-1.322-2.992-3.679-3.581-3.326-.832-4.253-5.185-4.263-5.229a.917.917,0,0,0-.036-.085c.3-1.121.6-2.113.791-2.733a6.959,6.959,0,0,0,1.638-.267l.118-.035c.081-.026.16-.058.24-.089a3.664,3.664,0,0,0,1.069-.607c4.033,6.528,6.2,14.508,6.2,19.014C113.535,56.7,109.775,58,107.535,58Z" transform="translate(-72.535 0.001)" fill="#005248"/>
      </g>
    </g>
  </g>
</svg>
