<svg xmlns="http://www.w3.org/2000/svg" width="64" height="64" viewBox="0 0 64 64">
  <g id="icon_03" transform="translate(-118 1.828)">
    <rect id="Rectángulo_2298" data-name="Rectángulo 2298" width="64" height="64" transform="translate(118 -1.828)" fill="none"/>
    <g id="_003-body-scan" data-name="003-body-scan" transform="translate(120.107)">
      <path id="Trazado_3336" data-name="Trazado 3336" d="M4.879,21.6a.879.879,0,0,0,.879-.879V10.53a.975.975,0,0,1,.975-.973H16.917a.879.879,0,1,0,0-1.758H6.734A2.735,2.735,0,0,0,4,10.53V20.721a.879.879,0,0,0,.879.879Z" transform="translate(-4 -6.885)" fill="#005248"/>
      <path id="Trazado_3337" data-name="Trazado 3337" d="M54.152,141.253a.879.879,0,1,0,0-1.758H51.508a.879.879,0,1,0,0,1.758Z" transform="translate(-45.165 -123.147)" fill="#005248"/>
      <path id="Trazado_3338" data-name="Trazado 3338" d="M50.629,59.219a.879.879,0,0,0,.879.879h8.734a.879.879,0,1,0,0-1.758H51.508A.879.879,0,0,0,50.629,59.219Z" transform="translate(-45.165 -51.503)" fill="#005248"/>
      <path id="Trazado_3339" data-name="Trazado 3339" d="M401.336,7.8H391.148a.879.879,0,1,0,0,1.758h10.187a.973.973,0,0,1,.972.973V20.72a.879.879,0,0,0,1.759,0V10.529A2.734,2.734,0,0,0,401.336,7.8Z" transform="translate(-345.002 -6.884)" fill="#005248"/>
      <path id="Trazado_3340" data-name="Trazado 3340" d="M16.917,406.276H6.734a.975.975,0,0,1-.975-.973V395.112a.879.879,0,0,0-1.759,0V405.3a2.735,2.735,0,0,0,2.734,2.731H16.917a.879.879,0,1,0,0-1.758Z" transform="translate(-4 -348.033)" fill="#005248"/>
      <path id="Trazado_3341" data-name="Trazado 3341" d="M403.187,394.233a.879.879,0,0,0-.879.879V405.3a.973.973,0,0,1-.972.973H391.148a.879.879,0,1,0,0,1.758h10.187a2.734,2.734,0,0,0,2.73-2.731V395.112A.879.879,0,0,0,403.187,394.233Z" transform="translate(-345.002 -348.033)" fill="#005248"/>
      <path id="Trazado_3342" data-name="Trazado 3342" d="M389.527,448.586a.879.879,0,0,0-.879-.879h-8.734a.879.879,0,1,0,0,1.758h8.734A.879.879,0,0,0,389.527,448.586Z" transform="translate(-335.084 -395.24)" fill="#005248"/>
      <path id="Trazado_3343" data-name="Trazado 3343" d="M59.4,35.668a3.666,3.666,0,0,0-3.552,2.785H43.241v-8.5l7.781.932,1.991.44a4.442,4.442,0,0,0,.953.106A3.741,3.741,0,0,0,57.582,28.7c.517-1.795-.267-4.208-3.212-5.265l-2.1-.752-2.252-.85a.879.879,0,1,0-.621,1.645l1.61.607L50.4,29.037l-7.163-.858V27.1a.879.879,0,0,0-1.759,0V38.452H26.409V27.1a.879.879,0,0,0-1.759,0V28.18l-7.163.858-.379-3.093-.228-1.865L23.456,21.5l1.005,1.681a.879.879,0,0,0,1.51-.9l-.721-1.206c.168,0,.359,0,.59,0h3.754V21.5A4.632,4.632,0,0,0,34.032,26.3,4.63,4.63,0,0,0,38.467,21.5v-.431h3.584a4.452,4.452,0,0,1,2.327.407l.014.006,1.14.446a.879.879,0,1,0,.641-1.637l-1.133-.443a6.132,6.132,0,0,0-2.991-.536H38.838a9.055,9.055,0,0,0,3.47-6.4V7.1c0-2.862-2.157-5.446-5.495-6.582-2.929-1-5.836-.533-7.387,1.142-1.588.271-3.838,1.523-3.761,6.454,0,.045,0,4.8,0,4.8a9.055,9.055,0,0,0,3.472,6.4h-3.3a8.478,8.478,0,0,0-1.592.09l-4.417-7.385a.88.88,0,0,0-.755-.428H10.344a.879.879,0,1,0,0,1.758h8.235l3.961,6.623-9.02,3.466c-2.944,1.057-3.729,3.47-3.211,5.265a3.741,3.741,0,0,0,3.616,2.726,4.449,4.449,0,0,0,.954-.106l1.99-.44,7.781-.932v8.5H11.214a3.66,3.66,0,1,0,0,1.758H24.65v4.431a.879.879,0,0,0,1.759,0V40.21h6.659V51.854H26.409l0-3.055a.879.879,0,0,0-.879-.88h0a.879.879,0,0,0-.879.878l0,3.935h0V54.6a4.8,4.8,0,0,0,4.792,4.79h.592a4.789,4.789,0,0,0,3.913-2.029,4.785,4.785,0,0,0,3.91,2.029h.6a4.8,4.8,0,0,0,4.789-4.79V47.589l5.3,1.832a.878.878,0,0,0,.287.048h8.734a.879.879,0,1,0,0-1.758H48.977l-5.736-1.982V40.21H55.849A3.661,3.661,0,1,0,59.4,35.668Zm-6.7-10.959,1.07.384c2.017.724,2.4,2.135,2.116,3.124a2,2,0,0,1-2.5,1.389l-1.251-.277Zm-16-3.2a2.876,2.876,0,0,1-2.676,3.036,2.878,2.878,0,0,1-2.68-3.036V20.71c.155.069.31.135.468.193a5.7,5.7,0,0,0,4.339,0c.178-.066.353-.14.528-.219.007.01.015.019.022.029V21.5ZM29.955,3.366a.879.879,0,0,0,.619-.339c1.17-1.518,3.692-1.517,5.672-.842s4.3,2.369,4.3,4.918V9.76h-.488a3.734,3.734,0,0,1-2.536-1.413A6.247,6.247,0,0,0,33.018,6.19H31.409c-2.109,0-2.277,1.786-2.367,2.746-.116,1.229-.213,1.369-.943,1.369h-.672V8.226c0-.035,0-.081,0-.137-.032-2.05.381-4.534,2.53-4.723Zm-2.529,9.551v-.854H28.1c2.415,0,2.6-1.927,2.694-2.962.109-1.153.186-1.153.617-1.153h1.609a4.545,4.545,0,0,1,3.3,1.681,5.322,5.322,0,0,0,3.739,1.889h.488v1.4c0,2.386-2.338,5.348-5,6.337a3.96,3.96,0,0,1-3.118,0c-2.666-.992-5-3.953-5-6.338ZM14.5,29.606A2,2,0,0,1,12,28.216c-.285-.988.1-2.4,2.116-3.124l1.07-.384.566,4.62ZM7.659,41.233a1.9,1.9,0,1,1,1.9-1.9A1.9,1.9,0,0,1,7.659,41.233Zm22.375,16.4h-.592A3.036,3.036,0,0,1,26.409,54.6v-.993h6.659V54.6A3.036,3.036,0,0,1,30.034,57.637ZM41.482,54.6a3.035,3.035,0,0,1-3.03,3.032h-.6a3.035,3.035,0,0,1-3.03-3.032v-.993h6.656V54.6Zm-2.7-8.557,2.7.934v4.873H34.826V40.21h6.656v4.911l-2.127-.735a.879.879,0,1,0-.575,1.661ZM59.4,41.233a1.9,1.9,0,1,1,1.9-1.9A1.9,1.9,0,0,1,59.4,41.233Z" transform="translate(-4 0.001)" fill="#005248"/>
    </g>
  </g>
</svg>
